<svg width="220" height="100" viewBox="0 0 220 100" fill="none" xmlns="http://www.w3.org/2000/svg">
<path fill-rule="evenodd" clip-rule="evenodd" d="M136.495 15.8703C135.417 16.1172 133.384 16.9507 132.501 17.5084C131.987 17.8329 121.543 28.1623 109.293 40.4623C97.0424 52.7623 82.314 67.4954 76.5628 73.2027C69.1569 80.5523 66.149 83.6908 66.2526 83.9607C66.376 84.2823 66.7853 84.3229 68.8716 84.2211C73.1228 84.0131 74.9382 83.0314 80.0714 78.1647C84.0169 74.4239 85.1458 73.5165 87.0212 72.5774C90.8321 70.6697 94.4822 70.6141 98.3092 72.4053C103.438 74.806 107.395 75.6089 112.961 75.3782C117.118 75.2058 118.929 74.8834 121.878 73.7908C129.505 70.9653 135.397 65.5174 138.944 58.0121C139.533 56.7664 140.192 54.9755 140.408 54.0325C140.624 53.0895 140.9 51.9874 141.02 51.5832C141.332 50.5327 141.506 48.6321 141.634 44.8477C141.749 41.4719 141.963 40.5421 143.246 37.8511C143.507 37.3034 143.72 36.7249 143.72 36.5652C143.72 36.4058 143.823 36.2752 143.949 36.2752C144.074 36.2752 144.247 36.0555 144.332 35.7873C144.599 34.9463 146.353 32.9114 147.448 32.1729C148.887 31.2021 151.249 30.397 152.659 30.397C153.832 30.397 153.832 30.397 153.68 28.9886C153.061 23.2466 148.061 17.5314 142.383 16.0756C141.03 15.7288 137.631 15.6102 136.495 15.8703Z" fill="white"/>
</svg>
