<svg width="220" height="100" viewBox="0 0 220 100" fill="none" xmlns="http://www.w3.org/2000/svg">
<path fill-rule="evenodd" clip-rule="evenodd" d="M91.4545 18.0711L110.205 8.33337L129.991 18.7237L115.784 24.9693L110.614 22.2564L104.472 25.2253L91.4545 18.0711ZM85.5801 21.1219L73.145 27.5799V51.2063L86.0443 45.5979V34.1319L97.3055 40.4792L111.433 34.1319L85.5801 21.1219ZM73.145 58.9745V73.0344L82.5735 77.7747L97.9198 70.9869L89.3203 66.4824L146.855 40.8894V27.5799L136.867 22.3349L122.695 28.6036L131.294 33.1081L73.145 58.9745ZM146.855 48.6514L134.57 53.9927V65.4587L123.309 59.1114L109.181 65.4587L135.603 78.7548L146.855 73.0344V48.6514ZM129.643 81.7848L116.143 74.3653L110 77.3342L104.83 74.6212L89.6102 81.3125L110.205 91.6667L129.643 81.7848Z" fill="white"/>
</svg>
