<svg width="220" height="100" viewBox="0 0 220 100" fill="none" xmlns="http://www.w3.org/2000/svg">
<path d="M151.023 50.0173V49.8558C150.943 26.9923 132.526 8.33337 109.986 8.33337C87.4456 8.33337 68.9482 26.9923 68.9482 50.0173C68.9482 73.0452 87.3619 91.6667 109.986 91.6667C120.367 91.6738 130.352 87.6779 137.862 80.5106C138.601 79.8348 139.042 78.8928 139.088 77.8919C139.133 76.891 138.778 75.9132 138.103 75.1735C137.427 74.4338 136.485 73.9928 135.484 73.9476C134.483 73.9024 133.505 74.2567 132.766 74.9325L132.685 75.0133C129.444 78.0938 125.615 80.4878 121.426 82.0515C117.237 83.6151 112.776 84.3163 108.31 84.1128C103.843 83.9093 99.464 82.8054 95.4349 80.8673C91.4058 78.9293 87.8098 76.197 84.8629 72.8346L102.394 44.7221V57.7308C102.394 63.9466 104.818 65.9695 106.855 66.5351C108.892 67.1007 111.948 66.6909 115.258 61.4418L124.876 45.8244C125.133 45.3685 125.43 44.9356 125.759 44.5287V52.45C125.759 58.2647 128.102 62.9511 132.139 65.2106C134.003 66.2253 136.107 66.7163 138.227 66.6315C140.347 66.5466 142.405 65.8891 144.181 64.7287C148.845 61.7016 151.349 56.4005 151.023 50.0173ZM140.358 58.1983C139.71 58.6444 138.955 58.9094 138.171 58.9657C137.386 59.022 136.601 58.8677 135.897 58.5186C134.281 57.5519 133.308 55.3732 133.308 52.3836V43.2273C133.308 38.8699 131.611 35.7158 128.705 34.9136C123.774 33.4246 120.063 39.5163 118.686 41.7787L109.986 55.7512V38.5467C109.905 34.5904 108.609 32.2472 106.185 31.5171C104.569 31.0352 102.145 31.2805 99.8051 34.8357L80.3352 66.0157C77.7451 61.0802 76.3877 55.5912 76.3789 50.0173C76.3789 31.1939 91.4827 15.9257 109.986 15.9257C128.489 15.9257 143.593 31.1939 143.593 50.0173V50.1818C143.786 53.812 142.62 56.7266 140.361 58.1752L140.358 58.1983Z" fill="white"/>
</svg>
