<svg width="220" height="100" viewBox="0 0 220 100" fill="none" xmlns="http://www.w3.org/2000/svg">
<path fill-rule="evenodd" clip-rule="evenodd" d="M79.2651 70.4084C80.2086 68.1747 81.3323 64.3702 82.1338 58.4926C82.5553 55.4014 82.7537 52.6635 82.9307 50.2199C83.4224 43.4328 83.7497 38.9159 88.2378 35.4035C94.3419 30.6264 100.977 27.7071 109.735 29.8302C109.807 29.8477 109.879 29.8652 109.95 29.8827C111.091 29.3386 112.367 29.034 113.716 29.034C117.2 29.034 120.209 31.0688 121.619 34.015C122.944 34.4693 124.545 34.9277 126.72 35.4035C135.212 37.2612 144.236 42.8344 139.724 49.7346C137.949 52.4489 135.066 55.4916 131.978 58.7498L131.978 58.7499L131.978 58.75C127.216 63.7748 121.969 69.312 119.554 74.947C116.553 81.9503 116.619 84.3271 116.681 86.2861C133.865 83.1423 146.89 68.0922 146.89 50C146.89 29.6265 130.374 13.1104 110 13.1104C89.6265 13.1104 73.1104 29.6265 73.1104 50C73.1104 57.5465 75.3764 64.5637 79.2651 70.4084ZM151.667 50C151.667 73.0119 133.012 91.6667 110 91.6667C86.9882 91.6667 68.3334 73.0119 68.3334 50C68.3334 26.9882 86.9882 8.33337 110 8.33337C133.012 8.33337 151.667 26.9882 151.667 50ZM104.692 46.5499C107.77 46.5499 110.265 44.0547 110.265 40.9767C110.265 37.8987 107.77 35.4034 104.692 35.4034C101.614 35.4034 99.1189 37.8987 99.1189 40.9767C99.1189 44.0547 101.614 46.5499 104.692 46.5499Z" fill="white"/>
</svg>
