<svg width="220" height="100" viewBox="0 0 220 100" fill="none" xmlns="http://www.w3.org/2000/svg">
<path fill-rule="evenodd" clip-rule="evenodd" d="M105.397 8.53191C100.715 9.2813 95.619 11.6018 91.878 14.6877C90.611 15.7325 89.327 16.5874 89.0243 16.5874C88.1638 16.5874 86.3923 15.5894 84.5799 14.0829C82.7969 12.6012 82.5674 12.8146 83.577 15.016C86.0923 20.4999 95.3889 29.4043 102.875 33.4994C105.194 34.7678 105.194 34.7678 106.525 33.9824C108.332 32.9163 111.179 32.8988 113.265 33.9415C114.8 34.7087 114.8 34.7087 116.234 33.9824C122.287 30.9157 130.946 23.3826 134.401 18.1787C135.77 16.1156 137.208 13.139 136.957 12.8876C136.874 12.8051 136.115 13.345 135.269 14.0874C133.597 15.5548 131.812 16.5874 130.949 16.5874C130.649 16.5874 129.187 15.6197 127.702 14.4366C124.699 12.046 121.321 10.3006 117.655 9.24673C114.908 8.45683 108.279 8.07026 105.397 8.53191ZM84.2038 25.5948C81.905 30.717 81.8257 31.2341 81.5093 43.1271C81.2101 54.3869 80.8043 58.3846 79.3834 64.0773C78.5938 67.2401 76.8157 72.1485 75.5878 74.5556C75.1768 75.3612 74.9373 76.1169 75.0557 76.2349C75.3685 76.5482 76.2625 75.92 80.5225 72.3912C82.624 70.6508 84.3924 69.2864 84.4521 69.3594C84.5118 69.4324 85.9488 71.7707 87.6452 74.5556C89.3417 77.3405 90.8513 79.7609 90.9997 79.9344C91.1481 80.108 92.8655 78.7785 94.8158 76.9798C98.1986 73.861 98.3858 73.7416 98.8642 74.3946C99.1404 74.7714 101.651 78.8117 104.443 83.3731C107.235 87.9347 109.706 91.6667 109.935 91.6667C110.163 91.6667 112.766 87.7332 115.718 82.9257C118.671 78.1182 121.223 74.1002 121.391 73.9965C121.558 73.8932 123.214 75.2338 125.07 76.9756C126.926 78.7178 128.533 80.1425 128.643 80.1419C128.752 80.1415 129.819 78.5306 131.013 76.5625C132.207 74.5944 133.709 72.1524 134.351 71.1358L135.517 69.2878L140.149 73.0027C142.696 75.0459 144.862 76.6358 144.962 76.5363C145.061 76.4364 144.568 75.0808 143.865 73.5237C139.834 64.5976 138.445 56.6763 138.445 42.627C138.445 35.3897 138.346 33.7746 137.767 31.5107C137.019 28.5844 135.036 23.5715 134.627 23.5715C134.483 23.5715 133.304 24.8402 132.006 26.3903C130.468 28.2282 129.711 29.4134 129.832 29.7951C129.934 30.1174 130.257 31.0096 130.549 31.7779C131.8 35.0642 130.716 39.2205 128.085 41.2274C126.433 42.4873 123.758 43.4763 122.001 43.4763C120.58 43.4763 120.58 43.4763 120.825 45.8334C120.96 47.13 121.09 48.2091 121.115 48.2321C121.139 48.2548 123.006 49.3286 125.262 50.6182C127.519 51.9078 129.366 53.0822 129.366 53.2275C129.366 53.3728 127.755 54.3736 125.786 55.4516C123.817 56.5296 121.633 58.0085 120.933 58.7376C117.568 62.2419 115.197 67.7028 111.356 80.7987L109.985 85.4704L108.837 81.6717C104.395 66.9729 102.042 61.5602 98.7301 58.4167C98.1979 57.9117 96.191 56.6123 94.2704 55.5295C92.3497 54.4466 90.6701 53.452 90.5377 53.32C90.4054 53.1877 92.2502 51.9794 94.6377 50.635C98.6763 48.3606 98.9787 48.1176 98.9854 47.1429C98.9892 46.5667 99.0859 45.5292 99.2005 44.8378C99.4082 43.58 99.4082 43.58 97.3413 43.3925C93.6837 43.0611 90.5601 40.9271 89.2883 37.8907C88.63 36.3196 88.8748 32.2629 89.7345 30.4952C90.3582 29.2126 90.3582 29.2126 88.5259 27.1778C87.5178 26.0586 86.5264 24.7892 86.3228 24.3572C85.7312 23.1039 85.1763 23.428 84.2038 25.5948ZM93.0394 33.1974C92.5093 34.5918 92.6312 35.5891 93.4892 36.877C94.4932 38.3841 96.572 39.4084 98.6149 39.4024C100.335 39.3972 102.826 38.7124 102.826 38.2445C102.826 38.0856 101.922 37.4507 100.818 36.8337C99.7138 36.2163 97.6762 34.9441 96.2902 34.0065C94.9042 33.0689 93.6827 32.3017 93.5751 32.3017C93.4679 32.3017 93.2269 32.7047 93.0394 33.1974ZM124.301 33.5543C123.341 34.2433 121.338 35.514 119.85 36.3783C118.361 37.2429 117.143 38.0744 117.143 38.2263C117.143 38.7424 119.222 39.3665 120.94 39.3665C124.669 39.3665 126.921 37.6931 126.921 34.9225C126.921 33.3496 126.661 32.3017 126.272 32.3017C126.147 32.3017 125.261 32.8653 124.301 33.5543ZM106.96 38.3405C106.03 39.0501 105.057 40.2625 104.421 41.5067C103.547 43.2161 103.36 44.0601 103.195 47.0521C103.001 50.5816 103.001 50.5816 100.998 51.6557C99.8968 52.2466 98.993 52.9139 98.9899 53.1381C98.9871 53.3626 99.5252 53.8805 100.186 54.2887C103.501 56.3375 106.285 60.7801 108.455 67.4842C109.126 69.5564 109.803 71.0635 110.061 71.0635C110.307 71.0635 110.508 70.8627 110.508 70.6173C110.508 69.6772 112.364 64.4786 113.677 61.7415C115.084 58.8068 118.05 55.1862 119.98 54.0464C120.532 53.7199 120.985 53.3406 120.985 53.2041C120.985 53.0672 120.042 52.3828 118.889 51.6826C116.794 50.4097 116.794 50.4097 116.789 48.0781C116.778 43.3952 115.309 39.8512 112.624 38.0262C110.794 36.7827 108.862 36.8899 106.96 38.3405Z" fill="white"/>
</svg>
