<svg width="220" height="100" viewBox="0 0 220 100" fill="none" xmlns="http://www.w3.org/2000/svg">
<path fill-rule="evenodd" clip-rule="evenodd" d="M105.116 8.47417C93.3074 9.94485 83.0331 16.0891 76.0413 25.8613C69.3178 35.2586 66.7955 47.5074 69.2534 58.8241C71.4741 69.0491 77.5088 78.1615 85.8749 83.9228C91.5942 87.8615 97.77 90.2475 105.112 91.3553C107.547 91.7227 114.187 91.7785 116.419 91.4502C121.421 90.7146 126.18 88.982 129.645 86.6344C132.135 84.9475 132.437 85.66 126.903 80.1514C122.396 75.6652 121.963 75.2926 120.979 75.058C119.856 74.7902 118.636 74.9608 115.487 75.8262C113.679 76.3234 106.332 76.3925 104.464 75.9298C99.3304 74.659 95.0109 72.2941 91.5912 68.8826C87.8522 65.1525 85.8478 61.593 84.3071 55.9467C83.8848 54.3984 83.824 53.649 83.8229 49.962C83.8216 46.2639 83.8809 45.53 84.3058 43.9772C85.591 39.2811 86.9586 36.5594 89.8792 32.8861C93.4907 28.344 99.8719 24.7461 105.977 23.8104C109.07 23.3362 114.07 23.5921 116.784 24.3636C123.435 26.2542 128.456 29.8953 132.304 35.6189C133.124 36.8389 133.413 37.4015 134.678 40.2352C135.561 42.2136 136.156 44.7288 136.46 47.768C137.049 53.6627 135.585 59.3727 132.089 64.8147C131.614 65.5537 131.259 66.2556 131.3 66.3746C131.341 66.4937 132.978 68.2722 134.939 70.327C136.899 72.3815 139.128 74.7191 139.892 75.5217C140.655 76.324 141.386 76.9736 141.515 76.9651C141.899 76.9394 143.948 74.4489 145.458 72.1746C148.245 67.9742 149.933 63.8554 151.067 58.4873C151.612 55.9067 151.658 55.2963 151.667 50.6104C151.676 45.8955 151.634 45.3137 151.074 42.5048C147.602 25.0913 135.1 12.4036 118.056 8.9979C115.654 8.51783 114.448 8.40738 110.948 8.34642C108.63 8.30579 106.006 8.36328 105.116 8.47417ZM108.246 33.4516C101.483 34.4608 96.4999 38.4723 94.3257 44.6589C93.4319 47.2013 93.2402 51.3369 93.8938 53.9607C95.7259 61.3126 102.503 66.6055 110.084 66.6055C118.48 66.6055 125.732 60.1415 126.481 51.9886C126.798 48.5382 126.25 45.032 125.032 42.7209C122.573 38.0575 118.449 34.7962 113.695 33.7553C112.499 33.4935 109.198 33.3096 108.246 33.4516Z" fill="white"/>
</svg>
